<?xml version="1.0" encoding="UTF-8"?>
<svg id="_Слой_1" data-name="Слой 1" xmlns="http://www.w3.org/2000/svg" viewBox="0 0 1000 1000">
  <defs>
    <style>
      .cls-1 {
        fill: #07a589;
      }

      .cls-2 {
        fill: #044040;
      }
    </style>
  </defs>
  <path class="cls-1" d="M369.77,186.57c-138.3,5.83-254.43,87.83-216.27,117.68,19.05,14.91,66.95,11.08,89.84-13.26,119.46-127.05,345.08-70.31,480.84,62.42-248.34-10.64-348.17,12.98-296.67,70.16,4.04,4.5,26.18,26.77,63.82,22.6,98.19-13.59,182.97-25.33,283.95-23.71,102.23,210.61-112.3,324.2-334.78,242.32-30.74-11.32-57.83-30.67-89.06-40.9-19.64-6.43-36.31-4.56-44.5-2.85-44.15,9.13-62.11,51.24-48.09,81.38,45.07,96.83,520.13,214.56,607.37-53.6,69.01-212.19-204.72-467.06-496.45-462.24Z"/>
  <path class="cls-2" d="M590,471.67l-39.14,5.76c22.12,48.81,50.35,114.48,70.55,164.12,14.55-2.05,26.93-4.86,40.18-9.11-20.49-48.66-48.99-113.08-71.6-160.8"/>
  <path class="cls-2" d="M738.07,456.5c-9.15.62-21.34,1.46-30.49,2.09,16.42,50.18,19.23,93.53,9.44,144.93,34.36-28.16,41.97-56.06,41.99-56.31.05-.26-.78-38.37-20.94-90.7Z"/>
  <path class="cls-2" d="M354.73,251.02c-45.95,17.43-89.36,33.91-51.52,162.64-39.21,8.36-91.52,19.37-130.52,28.6-6.01-37.16-3.65-67.04,7.88-99.94-15.26-.21-27.12-2.06-39.68-6.18-.73,1.31-71.93,132.9,74.93,289.39,10.11-14.89,21.38-25.55,37.62-35.6-34.34-36.14-55.5-69.09-70.8-110.23,40.14-9.31,93.6-21.9,133.91-30.36,77.66,170.97,152.71,181.6,225.27,191.91-84.89-62.03-140.02-124.05-178.76-201.07,6.43-1.18,14.99-2.78,21.44-3.97-8.59-11.81-13.06-22.2-14.96-34.72-6.27,1.1-14.67,2.56-20.94,3.67-13.82-42.99-25.61-99.35,6.14-154.12"/>
  <path class="cls-2" d="M421.94,238.13c-5.49.26-9.92.59-15.3,1.13,20.35,26.79,46.21,63.49,64.77,91.57l36.08-2.99c-19.71-27.64-47.01-63.84-68.68-89.95-5.66-.09-10.2,0-15.71.2l-1.15.04"/>
  <path class="cls-2" d="M496.44,244.13c48.13,22.39,84.35,46.24,121.09,79.73,8.71.13,20.3.35,29.02.5-65.18-60.75-94.7-68.89-150.1-80.21"/>
</svg>