<?xml version="1.0" encoding="UTF-8"?>
<svg id="_Слой_1" data-name="Слой 1" xmlns="http://www.w3.org/2000/svg" viewBox="0 0 2369 866">
  <defs>
    <style>
      .cls-1 {
        fill: #07a589;
      }

      .cls-2 {
        fill: #044040;
      }
    </style>
  </defs>
  <path class="cls-2" d="M383.04,183.05c-111.27,4.65-204.7,70.04-174,93.84,15.33,11.89,53.87,8.84,72.28-10.58,96.11-101.32,277.64-56.07,386.87,49.77-199.81-8.48-280.13,10.35-238.7,55.95,3.26,3.58,21.07,21.35,51.35,18.03,79-10.84,147.22-20.2,228.46-18.91,82.25,167.95-90.35,258.53-269.35,193.24-24.73-9.03-46.53-24.46-71.66-32.62-15.8-5.13-29.21-3.64-35.8-2.27-35.52,7.28-49.97,40.86-38.69,64.9,36.27,77.21,418.48,171.1,488.67-42.75,55.52-169.21-164.71-372.46-399.43-368.61Z"/>
  <path class="cls-1" d="M560.23,410.41l-31.49,4.59c17.8,38.92,40.51,91.3,56.76,130.88,11.71-1.63,21.68-3.88,32.33-7.26-16.49-38.81-39.41-90.17-57.6-128.23"/>
  <path class="cls-1" d="M679.36,398.31c-7.36.5-17.17,1.17-24.53,1.66,13.21,40.01,15.47,74.59,7.6,115.57,27.65-22.46,33.76-44.71,33.78-44.9.04-.2-.62-30.6-16.85-72.33Z"/>
  <path class="cls-1" d="M370.94,234.45c-36.96,13.9-71.89,27.04-41.45,129.7-31.55,6.67-73.63,15.45-105.01,22.8-4.84-29.64-2.94-53.46,6.34-79.7-12.28-.17-21.83-1.64-31.93-4.93-.59,1.04-57.87,105.98,60.29,230.78,8.14-11.88,17.2-20.37,30.27-28.39-27.63-28.82-44.65-55.1-56.96-87.91,32.29-7.42,75.3-17.46,107.74-24.21,62.48,136.34,122.86,144.82,181.23,153.04-68.29-49.47-112.65-98.92-143.82-160.35,5.17-.94,12.06-2.22,17.25-3.16-6.91-9.42-10.51-17.7-12.03-27.69-5.05.88-11.8,2.04-16.85,2.92-11.11-34.28-20.6-79.23,4.94-122.9"/>
  <path class="cls-1" d="M425.02,224.17c-4.42.21-7.99.47-12.31.9,16.37,21.36,37.18,50.63,52.11,73.02l29.03-2.38c-15.86-22.04-37.82-50.91-55.25-71.73-4.55-.07-8.21,0-12.64.16l-.93.03"/>
  <path class="cls-1" d="M484.95,228.96c38.73,17.86,67.87,36.88,97.43,63.58,7,.11,16.33.27,23.34.4-52.44-48.44-76.19-54.94-120.76-63.96"/>
  <path class="cls-2" d="M1139.84,396.66c4.94,11.24,7.27,23.06,7.27,35.46s-2.33,24.51-7.27,35.75c-4.65,10.96-11.34,20.76-19.78,29.12-8.43,8.36-18.32,14.99-29.37,19.6-11.34,4.9-23.56,7.21-36.06,7.21s-24.43-2.31-35.77-7.21c-11.05-4.61-20.94-11.24-29.38-19.6-4.62-4.43-8.68-9.27-12.12-14.48-5.07-7.68-.83-17.49,7.71-21.05,8.69-3.62,18.53.7,24.57,7.88,1.15,1.37,2.38,2.7,3.69,4.01,5.53,5.19,11.63,9.51,18.61,12.4,14.54,6.05,31.12,6.05,45.66,0,6.98-2.88,13.09-7.21,18.62-12.4,5.23-5.48,9.59-11.53,12.5-18.45.87-2.02,1.16-4.04,1.75-5.77h-59.77c-9.39,0-17.01-7.55-17.01-16.87s7.62-16.86,17.01-16.86h59.77c-.59-2.02-.88-4.04-1.75-5.77-2.91-6.92-7.27-13.26-12.5-18.45-5.53-5.48-11.64-9.51-18.62-12.4-14.54-6.05-31.12-6.05-45.66,0-6.98,2.88-13.08,6.92-18.61,12.4-1.33,1.32-2.6,2.7-3.8,4.16-5.92,7.14-15.69,11.38-24.29,7.8-8.58-3.58-12.76-13.51-7.68-21.24,3.38-5.16,7.33-9.96,11.92-14.36,8.44-8.65,18.33-15.28,29.38-19.89,22.68-9.51,49.15-9.51,71.83,0,11.05,4.61,20.94,11.24,29.37,19.6,8.44,8.65,15.13,18.45,19.78,29.41Z"/>
  <path class="cls-2" d="M1309.03,437.31c24.43,13.55,41.29,39.5,41.29,69.48v15.28h-34.02v-15.28c0-25.37-20.65-46.13-46.24-46.13h-55.84v61.4h-33.74v-175.68h33.74v80.83h37.81c25.59,0,46.24-20.76,46.24-46.13v-86.63c0-9.32,7.61-16.87,17.01-16.87s17.01,7.55,17.01,16.87v86.63c0,21.91-9.01,41.8-23.26,56.22Z"/>
  <path class="cls-2" d="M1462.66,340.44c51.18,0,92.48,41.23,92.48,91.68s-41.3,91.68-92.48,91.68-92.19-40.94-92.19-91.68,41.29-91.68,92.19-91.68ZM1462.66,490.35c32.28,0,58.75-26.23,58.75-58.23s-26.47-57.95-58.75-57.95-58.46,25.95-58.46,57.95,26.18,58.23,58.46,58.23Z"/>
  <path class="cls-2" d="M1674.68,342.17c51.19,0,92.49,41.23,92.49,91.68v88.22h-33.74v-88.22c0-32-26.46-57.95-58.75-57.95s-58.45,25.95-58.45,57.95v88.22h-33.74v-159.71c0-9.24,7.56-16.72,16.87-16.72s16.87,7.49,16.87,16.72v4.04h2.03s20.36-23.64,55.84-23.93c.29,0,.58-.29.58-.29Z"/>
  <path class="cls-2" d="M1886.76,340.44c51.19,0,92.48,41.23,92.48,91.68s-41.29,91.68-92.48,91.68c-36.06,0-56.42-23.93-56.42-23.93h-2.03v72.07c0,9.23-7.55,16.72-16.87,16.72s-16.87-7.49-16.87-16.72v-139.82c0-50.45,41.3-91.68,92.19-91.68ZM1886.76,490.35c32.28,0,58.75-26.23,58.75-58.23s-26.47-57.95-58.75-57.95-58.45,25.95-58.45,57.95,26.17,58.23,58.45,58.23Z"/>
  <path class="cls-2" d="M2092.02,340.44c51.18,0,92.48,41.23,92.48,91.68s-41.3,91.68-92.48,91.68-92.19-40.94-92.19-91.68,41.29-91.68,92.19-91.68ZM2092.02,490.35c32.28,0,58.74-26.23,58.74-58.23s-26.46-57.95-58.74-57.95-58.46,25.95-58.46,57.95,26.18,58.23,58.46,58.23Z"/>
</svg>