<svg xmlns="http://www.w3.org/2000/svg" viewBox="0 0 64 64" id="music">
  <defs>
    <linearGradient id="a" x1="32" x2="32" y1="64" y2="0" gradientUnits="userSpaceOnUse">
      <stop offset=".001" stop-color="#ffd255"></stop>
      <stop offset=".999" stop-color="#ff78dc"></stop>
    </linearGradient>
  </defs>
  <path fill="url(#a)" d="m8,46c-2.20556641,0-4,1.79443359-4,4s1.79443359,4,4,4,4-1.79443359,4-4-1.79443359-4-4-4Zm0,6c-1.10302734,0-2-.89697266-2-2s.89697266-2,2-2,2,.89697266,2,2-.89697266,2-2,2Zm48-6c-2.20556641,0-4,1.79443359-4,4s1.79443359,4,4,4,4-1.79443359,4-4-1.79443359-4-4-4Zm0,6c-1.10302734,0-2-.89697266-2-2s.89697266-2,2-2,2,.89697266,2,2-.89697266,2-2,2Zm5-44h2c.55224609,0,1-.44775391,1-1V1c0-.55224609-.44775391-1-1-1H1C.44775391,0,0,.44775391,0,1v6c0,.55224609.44775391,1,1,1h2v34H1c-.55224609,0-1,.44775391-1,1v20c0,.55224609.44775391,1,1,1h62c.55224609,0,1-.44775391,1-1v-20c0-.55224609-.44775391-1-1-1h-2V8ZM16,44h32v4H16v-4Zm17-2v-6.80682373l3.35107422-1.25665283c.51708984-.19433594.77929688-.77050781.58544922-1.28759766-.19433594-.51708984-.77050781-.77685547-1.28759766-.58544922l-8,3c-.51708984.19433594-.77929688.77050781-.58544922,1.28759766.15087891.40136719.53173828.64941406.93652344.64941406.11669922,0,.23535156-.02099609.35107422-.06396484l2.64892578-.99334717v6.05682373H13V14h6v2.14202881c-1.72027588.44726562-3,1.99969482-3,3.85797119,0,2.20556641,1.79443359,4,4,4s4-1.79443359,4-4c0-1.85827637-1.27972412-3.41070557-3-3.85797119v-2.14202881h10v2.14202881c-1.72027588.44726562-3,1.99969482-3,3.85797119,0,2.20556641,1.79443359,4,4,4s4-1.79443359,4-4c0-1.85827637-1.27972412-3.41070557-3-3.85797119v-2.14202881h10v2.14202881c-1.72027588.44726562-3,1.99969482-3,3.85797119,0,2.20556641,1.79443359,4,4,4s4-1.79443359,4-4c0-1.85827637-1.27972412-3.41070557-3-3.85797119v-2.14202881h6v28h-18Zm20-21.00012207l5.33349609,4.00012207-5.33349609,4.00012207v-8.00024414Zm.66650391-1.99987793l5.33349609-4.00012207v8.00024414l-5.33349609-4.00012207Zm-.66650391-1.99987793v-8.00024414l5.33349609,4.00012207-5.33349609,4.00012207Zm-2-5.00012207H13v-4h38v4Zm-7,6c1.10302734,0,2,.89697266,2,2s-.89697266,2-2,2-2-.89697266-2-2,.89697266-2,2-2Zm-12,0c1.10302734,0,2,.89697266,2,2s-.89697266,2-2,2-2-.89697266-2-2,.89697266-2,2-2Zm-12,0c1.10302734,0,2,.89697266,2,2s-.89697266,2-2,2-2-.89697266-2-2,.89697266-2,2-2Zm-9,11.00012207l-5.33349609-4.00012207,5.33349609-4.00012207v8.00024414Zm0-16.00012207v4.00012207l-5.33349609-4.00012207,5.33349609-4.00012207v4.00012207Zm-.66650391,6l-5.33349609,4.00012207v-8.00024414l5.33349609,4.00012207Zm0,12l-5.33349609,4.00012207v-8.00024414l5.33349609,4.00012207Zm.66650391,1.99987793v8.00024414l-5.33349609-4.00012207,5.33349609-4.00012207Zm42,0l5.33349609,4.00012207-5.33349609,4.00012207v-8.00024414Zm.66650391-1.99987793l5.33349609-4.00012207v8.00024414l-5.33349609-4.00012207Zm5.33349609-19.99987793l-4.00018311-3.00012207h4.00018311v3.00012207ZM2,2h60v4H2V2Zm7.00018311,6l-4.00018311,3.00012207v-3.00012207h4.00018311Zm-4.00018311,30.99987793l4.00018311,3.00012207h-4.00018311v-3.00012207Zm-3,5.00012207h12v18H2v-18Zm14,6h32v12H16v-12Zm46,12h-12v-18h12v18Zm-7.00018311-20l4.00018311-3.00012207v3.00012207h-4.00018311ZM9,58c0,.55230713-.44769287,1-1,1s-1-.44769287-1-1,.44769287-1,1-1,1,.44769287,1,1Zm48,0c0,.55230713-.44769287,1-1,1s-1-.44769287-1-1,.44769287-1,1-1,1,.44769287,1,1Z"></path>
</svg>
