<svg xmlns="http://www.w3.org/2000/svg" viewBox="0 0 64 64" id="toilet-cleaning">
  <path fill="#16213e" d="M45,45H40.82l-.84-4.2A1,1,0,0,0,39,40H29a1,1,0,0,0-.98.8L27.18,45H25.93A12.057,12.057,0,0,0,21,41.69V38a1,1,0,0,0-1-1V6a3,3,0,0,0-6,0V37a1,1,0,0,0-1,1v3.7A12.014,12.014,0,0,0,5,53v2.18A3.01,3.01,0,0,0,3,58a3,3,0,0,0,3,3H44a.985.985,0,0,0,.79-.39,1,1,0,0,0,.18-.85l-.03-.12A31.961,31.961,0,0,1,44.03,53H45a1,1,0,0,0,1-1V46A1,1,0,0,0,45,45ZM29.82,42h8.36l.6,3H29.22ZM16,6a1,1,0,0,1,2,0V37H16ZM15,39h4v2H15Zm8.53,18.37c-.06.36-.13.71-.21,1.06L23.2,59H6a.949.949,0,0,1-.71-.31A.928.928,0,0,1,5,58a1,1,0,0,1,1-1H23.59C23.57,57.12,23.55,57.25,23.53,57.37Zm.43-3.91c-.02.34-.04.68-.07,1.03-.01.17-.03.34-.04.51H7V53a10,10,0,0,1,16-8,1,1,0,0,0-1,1v6a1,1,0,0,0,1,1h.97C23.97,53.15,23.96,53.3,23.96,53.46ZM39,59V56a1,1,0,0,0-2,0v3H35V56a1,1,0,0,0-2,0v3H31V56a1,1,0,0,0-2,0v3H25.26c.02-.1.03-.21.05-.31.17-.84.33-1.69.44-2.56v-.01c.08-.61.13-1.23.17-1.85.01-.19.02-.37.03-.56.01-.24.03-.47.04-.71H42.02a34.011,34.011,0,0,0,.72,6Zm5-8H24V47H44Z"></path>
  <path fill="#ffc93c" d="M39,59V56a1,1,0,0,0-2,0v3H35V56a1,1,0,0,0-2,0v3H31V56a1,1,0,0,0-2,0v3H25.26c.02-.1.03-.21.05-.31.17-.84.33-1.69.44-2.56v-.01c.08-.61.13-1.23.17-1.85.01-.19.02-.37.03-.56.01-.24.03-.47.04-.71H42.02a34.011,34.011,0,0,0,.72,6Z"></path>
  <rect width="20" height="4" x="24" y="47" fill="#a2d5f2"></rect>
  <rect width="4" height="2" x="15" y="39" fill="#40a8c4"></rect>
  <path fill="#40a8c4" d="M18,6V37H16V6a1,1,0,0,1,2,0Z"></path>
  <path fill="#ffc93c" d="M23.59 57c-.02.12-.04.25-.06.37-.06.36-.13.71-.21 1.06L23.2 59H6a.949.949 0 0 1-.71-.31A.928.928 0 0 1 5 58a1 1 0 0 1 1-1zM23.97 53c0 .15-.01.3-.01.46-.02.34-.04.68-.07 1.03-.01.17-.03.34-.04.51H7V53a10 10 0 0 1 16-8 1 1 0 0 0-1 1v6a1 1 0 0 0 1 1z"></path>
  <path fill="#16213e" d="M57,27.62V24a1,1,0,0,0-1-1H52a1,1,0,0,0-1,1v3.62a14.518,14.518,0,0,0-4,10.04V58a3.009,3.009,0,0,0,3,3h8a3.009,3.009,0,0,0,3-3V37.66A14.518,14.518,0,0,0,57,27.62ZM53,25h2v2H53Zm6,33a1,1,0,0,1-1,1H50a1,1,0,0,1-1-1V51H59Zm0-9H49V41H59Zm0-10H49V37.66A12.558,12.558,0,0,1,52.42,29h3.16A12.558,12.558,0,0,1,59,37.66Z"></path>
  <rect width="2" height="2" x="53" y="25" fill="#a2d5f2"></rect>
  <path fill="#a2d5f2" d="M59,37.66V39H49V37.66A12.558,12.558,0,0,1,52.42,29h3.16A12.558,12.558,0,0,1,59,37.66Z"></path>
  <rect width="10" height="8" x="49" y="41" fill="#40a8c4"></rect>
  <path fill="#a2d5f2" d="M59,51v7a1,1,0,0,1-1,1H50a1,1,0,0,1-1-1V51Z"></path>
</svg>
