<?xml version="1.0" encoding="iso-8859-1"?>
<!-- Uploaded to: SVG Repo, www.svgrepo.com, Generator: SVG Repo Mixer Tools -->
<svg height="800px" width="800px" version="1.1" id="Layer_1" xmlns="http://www.w3.org/2000/svg" xmlns:xlink="http://www.w3.org/1999/xlink" 
	 viewBox="0 0 512 512" xml:space="preserve">
<polygon style="fill:#00479B;" points="121.803,116.218 121.803,434.522 255.999,511.575 255.999,193.273 "/>
<polygon style="fill:#013F8A;" points="255.999,512 390.197,434.522 390.197,116.218 255.999,193.697 "/>
<polygon style="fill:#016EF1;" points="130.19,420.866 130.19,149.691 247.612,217.485 247.612,488.662 "/>
<path style="fill:#005ECF;" d="M240.292,475.982L137.511,416.64V162.37l102.781,59.342L240.292,475.982L240.292,475.982z
	 M139.644,415.409l98.515,56.877V222.943l-98.515-56.877V415.409z"/>
<path style="fill:#ACABB1;" d="M222.662,318.006c-1.598-0.923-2.906-0.167-2.906,1.678v31.31c0,1.845,1.308,4.11,2.906,5.032
	l5.165,2.981c1.598,0.923,2.906,0.167,2.906-1.678v-31.31c0-1.845-1.308-4.11-2.906-5.032L222.662,318.006z"/>
<path style="fill:#C6C5CB;" d="M218.733,340.701c-0.357,0-0.714-0.086-1.038-0.26l-10.861-5.824
	c-1.068-0.574-1.47-1.904-0.897-2.972c0.573-1.068,1.903-1.47,2.972-0.897l9.83,5.272l4.358-2.305
	c1.074-0.565,2.4-0.157,2.966,0.915c0.566,1.072,0.157,2.4-0.914,2.966l-5.392,2.851
	C219.438,340.617,219.085,340.701,218.733,340.701z"/>
<polygon style="fill:#004FAE;" points="105.028,87.164 105.028,117.516 255.981,204.68 406.972,117.516 406.972,87.164 255.999,0 
	"/>
<polygon style="fill:#005ECF;" points="105.028,87.164 255.999,0 406.972,87.164 255.981,174.327 "/>
<polygon style="fill:#00479B;" points="255.981,174.327 255.981,204.68 406.972,117.516 406.972,87.164 "/>
<g>
	<polyline style="fill:#005ECF;" points="291.241,214.163 273.505,224.403 273.517,228.575 280.327,224.642 280.384,244.949 
		284.5,242.574 284.443,222.267 291.252,218.335 291.241,214.163 	"/>
	<path style="fill:#005ECF;" d="M302.069,228.389c-0.985,0.569-1.858,0.846-2.626,0.828c-0.775-0.014-1.424-0.246-1.961-0.698
		c-0.53-0.455-0.941-1.093-1.217-1.921c-0.284-0.832-0.428-1.77-0.431-2.828c-0.003-1.01,0.128-2.082,0.393-3.215
		c0.272-1.137,0.663-2.237,1.182-3.306c0.518-1.069,1.164-2.065,1.943-2.984c0.78-0.919,1.665-1.674,2.671-2.255
		c0.957-0.553,1.823-0.826,2.598-0.828c0.768,0.01,1.418,0.242,1.954,0.686c0.53,0.455,0.941,1.093,1.238,1.917
		c0.291,0.82,0.435,1.757,0.437,2.816c0.003,1.01-0.128,2.082-0.393,3.214c-0.264,1.133-0.663,2.245-1.196,3.33
		c-0.526,1.089-1.171,2.085-1.943,3.009C303.954,227.065,303.069,227.812,302.069,228.389 M302.067,207.742
		c-1.499,0.865-2.891,2.01-4.168,3.427c-1.279,1.41-2.381,2.97-3.306,4.654c-0.926,1.684-1.653,3.424-2.177,5.224
		c-0.53,1.805-0.786,3.515-0.782,5.148c0.004,1.561,0.255,2.954,0.758,4.152c0.503,1.207,1.218,2.123,2.129,2.763
		c0.911,0.64,2.004,0.941,3.279,0.9c1.268-0.028,2.69-0.5,4.245-1.398c1.505-0.869,2.891-2.001,4.168-3.419
		c1.279-1.419,2.381-2.97,3.292-4.629c0.918-1.671,1.632-3.396,2.148-5.184c0.516-1.78,0.772-3.483,0.768-5.116
		c-0.004-1.545-0.255-2.913-0.758-4.12s-1.211-2.135-2.115-2.787s-1.99-0.973-3.265-0.965
		C305.016,206.404,303.608,206.854,302.067,207.742"/>
	<polyline style="fill:#005ECF;" points="319.712,197.725 315.569,200.118 315.638,224.596 319.781,222.204 319.712,197.725 	"/>
	<polyline style="fill:#005ECF;" points="328.295,192.771 324.151,195.162 324.22,219.641 339.22,210.981 339.208,206.81 
		328.353,213.077 328.295,192.771 	"/>
	<polyline style="fill:#005ECF;" points="356.196,176.661 341.676,185.045 341.745,209.523 356.533,200.985 356.522,196.814 
		345.87,202.963 345.852,196.585 354.821,191.406 354.811,187.542 345.841,192.72 345.824,186.827 356.208,180.833 356.196,176.661 
			"/>
	<polyline style="fill:#005ECF;" points="375.634,165.439 357.906,175.674 357.918,179.846 364.727,175.914 364.785,196.221 
		368.894,193.849 368.836,173.542 375.647,169.61 375.634,165.439 	"/>
</g>
</svg>