<svg xmlns="http://www.w3.org/2000/svg" viewBox="0 0 24 24" fill="#0077FF">
  <path d="M15.073 2H8.937C5.009 2 2 5.009 2 8.937v6.125C2 18.991 5.009 22 8.937 22h6.125C18.991 22 22 18.991 22 15.062V8.937C22 5.009 18.991 2 15.073 2zM17.8 14.1c.6.8.9 1.2 1.9 1.2h-2.5c-.7 0-1-.4-1.4-.9-.4-.6-.9-1.1-1.3-1.1s-.6.2-.6 1.1v1.6h-2.1c-.6 0-.8-.3-.8-1.6 0-1.3.2-2.2 1.3-3.3 1.2-1.2 2.6-3 2.6-4 0-.3-.1-.5-.5-.5h-2.5c-.6 0-.8.3-.8.8 0 .8-.3 1.7-1.1 2.5-.8.8-1.2 1-1.6 1s-.5-.1-.5-.8V8h-2c-.6 0-.8.3-.8.6 0 .6.9.7 1.2 2.3.3 1.5 0 3.1 0 3.1s-.1.6-1 .6H4.8c-1.3 0-1.6-.6-1.6-1.3 0-1.2 1.6-5.1 4.4-7.2C9.6 4.6 11.3 4 13.5 4c2.4 0 3 .5 3 .9 0 .3-.2.8-1.3 1.1-1.2.3-1.3.7-1.3 1 0 .3.2.6 1.1 1.5.8.9 2.4 2.8 2.8 4.6z"/>
</svg>
